PathFileType	4	(X/Y/Z)	../Python\walking\Walking17\task.trc
DataRate	CameraRate	NumFrames	NumMarkers	Units	OrigDataRate	OrigDataStartFrame	OrigNumFrames
200.000000	200.000000	4	30	mm	200.000000	175	350
Frame#	Time	CLAV			STRN			RASI			LASI			PE01			RTH1			RTH2			RTH3			RTB3			RHEE			RD5M			RTOE			LTH2			LTH3			LTB2			LTB3			LHEE			LTOE			LD5M			RBAK			RTB2			C7			RTB1			LPSI			PE03			PE02			RPSI			T10			LTH1			LTB1			
		X1	Y1	Z1	X2	Y2	Z2	X3	Y3	Z3	X4	Y4	Z4	X5	Y5	Z5	X6	Y6	Z6	X7	Y7	Z7	X8	Y8	Z8	X9	Y9	Z9	X10	Y10	Z10	X11	Y11	Z11	X12	Y12	Z12	X13	Y13	Z13	X14	Y14	Z14	X15	Y15	Z15	X16	Y16	Z16	X17	Y17	Z17	X18	Y18	Z18	X19	Y19	Z19	X20	Y20	Z20	X21	Y21	Z21	X22	Y22	Z22	X23	Y23	Z23	X24	Y24	Z24	X25	Y25	Z25	X26	Y26	Z26	X27	Y27	Z27	X28	Y28	Z28	X29	Y29	Z29	X30	Y30	Z30	

176	0.875	-207.8896484375001	1265.6884765625	144.5770568847657	-145.9122619628907	1081.7470703125	153.6075286865235	-183.2695770263672	878.0067749023442	277.076873779297	-166.4606475830079	885.7433471679692	50.54301452636722	-370.5598754882814	958.4152832031255	165.8644256591797	-182.5413513183594	588.0330200195315	315.7493286132814	-142.0465698242188	519.917419433594	305.6478576660157	-132.2433013916016	580.684997558594	311.3067932128907	-248.105682373047	259.270233154297	267.3866271972657	-418.419372558594	150.6578063964844	178.8858337402344	-314.4916992187501	62.80601882934573	266.2111206054689	-275.2104797363282	54.68717193603518	225.2137908935548	-231.4263153076173	560.5340576171877	31.45193672180177	-162.5483703613282	598.9088134765627	34.17198562622072	-263.7437438964845	207.7802734375001	65.28504180908206	-224.1043701171876	234.1543579101564	70.87705993652347	-308.4889221191407	34.0490188598633	126.0984497070313	-115.9682846069337	30.08692741394044	131.8117980957032	-157.2239685058594	15.53037643432618	80.30393981933597	-378.4965820312501	1261.731811523438	251.1639862060548	-255.1118011474611	307.2718505859376	283.7206115722657	-329.7174377441407	1359.937866210938	143.5034484863282	-194.4106750488282	317.380340576172	280.9149475097657	-371.1834716796876	924.7798461914067	120.0552825927735	-383.0097961425782	901.1685180664067	132.7240753173829	-386.9153137207034	896.2171020507817	182.9369049072266	-374.9931945800782	920.7230834960942	208.2235565185548	-353.7119445800782	1060.897583007813	158.7710876464844	-205.833221435547	616.1824340820315	18.45787620544434	-253.4040069580079	285.5721130371095	51.383171081543	
177	0.88	-201.6573791503907	1266.177734375	145.1136169433594	-139.7612304687501	1082.277099609375	153.8315582275391	-177.2254180908204	878.7878417968755	276.6492919921876	-160.2438964843751	886.0316772460942	50.1557426452637	-364.4711914062501	958.8546752929692	165.1670684814454	-173.3660736083985	589.5393676757815	315.3279113769532	-132.0352325439454	521.9580078125002	305.1524963378907	-122.9645080566407	582.8349609375002	310.9684143066407	-231.8794555664064	257.8310852050782	267.3651733398439	-399.7185974121096	143.9663543701172	179.9835205078126	-291.9169006347657	60.30257034301761	266.8224487304689	-252.5386505126954	53.68403625488284	225.5576934814454	-228.2517700195314	560.679382324219	31.58376502990724	-158.9082183837891	598.2631835937502	34.66231536865236	-263.2161560058595	207.8671722412111	65.34745788574222	-223.4984436035157	234.1173858642579	70.96128082275393	-308.4962463378907	34.08032226562501	126.190170288086	-115.9494400024415	30.07540321350099	131.9135894775391	-157.2337799072266	15.58161449432374	80.39553833007815	-372.6804199218751	1261.910888671875	250.748992919922	-240.0276489257814	305.4605407714845	284.1251831054689	-323.4452514648439	1360.367919921875	143.7114562988282	-179.7300567626954	317.3367614746095	280.6991271972657	-365.0559997558595	925.1403198242192	119.4461746215821	-376.9961853027345	901.4631958007817	132.2447509765626	-380.8292846679689	896.731811523438	182.518051147461	-368.9397277832032	921.2446899414067	207.664520263672	-347.5229492187501	1061.319580078125	157.9368438720704	-201.8954010009767	616.0979003906252	18.69681930541993	-252.6248474121095	285.624237060547	51.47119522094729	
178	0.885	-195.4334106445314	1266.578125	145.6390838623047	-133.606185913086	1082.729125976563	154.0424346923829	-171.1481628417969	879.4873046875005	276.2190551757814	-154.0099182128907	886.2459106445317	49.77234268188479	-358.3703613281251	959.2073364257817	164.5112915039063	-164.3764648437501	590.9698486328127	314.8555908203126	-122.2664031982422	523.9097900390627	304.602020263672	-113.8901062011719	584.8784179687502	310.6010742187501	-215.6179809570314	256.387420654297	267.3836059570314	-380.6492309570314	137.1819610595704	181.1238861083985	-269.1759643554689	57.84830474853518	267.4470214843751	-229.764617919922	52.71416854858401	225.918426513672	-225.0661926269532	560.7905883789065	31.70423126220705	-155.2822570800782	597.601501464844	35.15089035034181	-262.704559326172	207.952117919922	65.38671875000003	-222.9000549316407	234.0796813964845	71.01348876953128	-308.5070190429689	34.11563110351564	126.268898010254	-115.9369506835938	30.05749320983888	132.0164794921876	-157.2454071044922	15.62926959991456	80.48649597167972	-366.8635864257814	1262.007080078125	250.3322753906251	-224.9537658691407	303.620086669922	284.517547607422	-317.178680419922	1360.709594726563	143.9154815673829	-165.1155090332032	317.276092529297	280.5128479003907	-358.9201660156251	925.4160766601567	118.8784179687501	-370.9561767578126	901.671752929688	131.8099517822266	-374.7195129394532	897.1577148437505	182.1386871337891	-362.8641967773439	921.6777954101567	207.1498565673829	-341.332489013672	1061.651123046875	157.1368103027344	-197.9795532226564	615.9671630859377	18.92484855651856	-251.8702087402345	285.6696166992189	51.53252792358401	
179	0.89	-189.2159271240235	1266.887573242188	146.1524963378907	-127.4451904296876	1083.099975585938	154.2404174804688	-165.0372161865235	880.100219726563	275.7897033691407	-147.7582397460938	886.380004882813	49.39495849609378	-352.2547302246095	959.4713745117192	163.8990783691407	-155.5747528076172	592.314392089844	314.3302307128907	-112.739112854004	525.759460449219	303.994842529297	-105.0205230712891	586.8035278320315	310.2034912109376	-199.3380584716798	254.9554901123048	267.4476013183595	-361.2188720703126	130.3367309570313	182.3001251220704	-246.2789001464845	55.47100448608401	268.0891113281251	-206.8927764892579	51.80469131469729	226.3020935058595	-221.8629455566407	560.8694458007815	31.80246925354005	-151.6657104492188	596.9246826171877	35.6341896057129	-262.2067871093751	208.035858154297	65.39815521240237	-222.3068695068361	234.0413360595704	71.02863311767581	-308.5208129882814	34.1564064025879	126.332145690918	-115.931381225586	30.0318069458008	132.1178436279297	-157.2583618164063	15.67297554016114	80.57376861572268	-361.0446777343751	1262.018188476563	249.913787841797	-209.9051666259767	301.7675170898439	284.8934631347657	-310.9161682128907	1360.961059570313	144.1149139404297	-150.5826110839844	317.208709716797	280.3609008789064	-352.7750244140626	925.6065063476567	118.3529663085938	-364.8897705078126	901.7944335937505	131.4188385009766	-368.5867614746095	897.4929809570317	181.7976684570313	-356.7666320800782	922.0191040039067	206.6786956787111	-335.1398315429689	1061.890380859375	156.3728942871094	-194.0798187255861	615.792907714844	19.13521575927735	-251.1374816894532	285.7086791992189	51.56215667724612	
